<?xml version="1.0" encoding="UTF-8" standalone="no"?>
<svg
   xmlns:dc="http://purl.org/dc/elements/1.1/"
   xmlns:cc="http://creativecommons.org/ns#"
   xmlns:rdf="http://www.w3.org/1999/02/22-rdf-syntax-ns#"
   xmlns:svg="http://www.w3.org/2000/svg"
   xmlns="http://www.w3.org/2000/svg"
   xmlns:xlink="http://www.w3.org/1999/xlink"
   xmlns:sodipodi="http://sodipodi.sourceforge.net/DTD/sodipodi-0.dtd"
   xmlns:inkscape="http://www.inkscape.org/namespaces/inkscape"
   width="1280"
   height="640"
   viewBox="0 0 960.00002 480.00002"
   version="1.1"
   id="svg219"
   sodipodi:docname="logo.svg"
   inkscape:version="0.92.4 (5da689c313, 2019-01-14)"
   inkscape:export-filename="logo.png"
   inkscape:export-xdpi="96"
   inkscape:export-ydpi="96">
  <metadata
     id="metadata225">
    <rdf:RDF>
      <cc:Work
         rdf:about="">
        <dc:format>image/svg+xml</dc:format>
        <dc:type
           rdf:resource="http://purl.org/dc/dcmitype/StillImage" />
        <dc:title />
      </cc:Work>
    </rdf:RDF>
  </metadata>
  <defs
     id="defs223">
    <linearGradient
       inkscape:collect="always"
       id="linearGradient909">
      <stop
         style="stop-color:#767bb3;stop-opacity:1"
         offset="0"
         id="stop905" />
      <stop
         style="stop-color:#4a90e2;stop-opacity:1"
         offset="1"
         id="stop907" />
    </linearGradient>
    <linearGradient
       inkscape:collect="always"
       id="linearGradient867">
      <stop
         style="stop-color:#777bb3;stop-opacity:1"
         offset="0"
         id="stop863" />
      <stop
         style="stop-color:#4a90e2;stop-opacity:1"
         offset="1"
         id="stop865" />
    </linearGradient>
    <linearGradient
       inkscape:collect="always"
       xlink:href="#linearGradient867"
       id="linearGradient917"
       gradientUnits="userSpaceOnUse"
       x1="254.9274"
       y1="240"
       x2="568.0816"
       y2="240" />
    <linearGradient
       inkscape:collect="always"
       xlink:href="#linearGradient867"
       id="linearGradient919"
       gradientUnits="userSpaceOnUse"
       x1="254.9274"
       y1="240"
       x2="568.0816"
       y2="240" />
    <linearGradient
       inkscape:collect="always"
       xlink:href="#linearGradient867"
       id="linearGradient921"
       gradientUnits="userSpaceOnUse"
       x1="254.9274"
       y1="240"
       x2="568.0816"
       y2="240" />
    <linearGradient
       inkscape:collect="always"
       xlink:href="#linearGradient909"
       id="linearGradient911"
       x1="-1132.5623"
       y1="-546.23633"
       x2="350.56174"
       y2="-546.23633"
       gradientUnits="userSpaceOnUse" />
  </defs>
  <sodipodi:namedview
     pagecolor="#ffffff"
     bordercolor="#666666"
     borderopacity="1"
     objecttolerance="10"
     gridtolerance="10"
     guidetolerance="10"
     inkscape:pageopacity="0"
     inkscape:pageshadow="2"
     inkscape:window-width="1920"
     inkscape:window-height="1007"
     id="namedview221"
     showgrid="false"
     units="px"
     inkscape:showpageshadow="false"
     borderlayer="true"
     inkscape:zoom="0.43757726"
     inkscape:cx="595.483"
     inkscape:cy="369.68217"
     inkscape:window-x="-9"
     inkscape:window-y="-9"
     inkscape:window-maximized="1"
     inkscape:current-layer="svg219"
     inkscape:snap-page="true"
     inkscape:snap-intersection-paths="true"
     inkscape:snap-smooth-nodes="true" />
  <g
     id="#000101ff"
     transform="translate(0,-328.99995)" />
  <g
     id="#ffffffff"
     transform="translate(0,-328.99995)" />
  <style
     id="style3930"
     type="text/css">
	.st0{fill:#4A90E2;}
	.st1{fill:#000034;}
	.st2{fill:#FFFFFF;}
</style>
  <style
     id="style15"
     type="text/css">
	.st0{fill:#4A90E2;}
	.st1{fill:#000034;}
	.st2{fill:#FFFFFF;}
</style>
  <g
     style="fill:#ffffff;fill-opacity:1"
     transform="matrix(0.59836881,0,0,0.59836881,-490.70408,-214.3391)"
     id="g971">
    <g
       style="fill:#ffffff;fill-opacity:1"
       id="g967" />
    <g
       style="fill:#ffffff;fill-opacity:1"
       id="g969" />
  </g>
  <path
     style="opacity:0.5;fill:none;stroke:#ffffff;stroke-width:22.5;stroke-linecap:square;stroke-linejoin:miter;stroke-miterlimit:4;stroke-dasharray:none;stroke-dashoffset:0;stroke-opacity:1"
     d="m 984.17915,-372.07449 -33.93513,247.30195 67.87028,-14.60391 -33.93515,247.30196"
     id="path1680"
     inkscape:connector-curvature="0" />
  <g
     id="g845"
     transform="matrix(0.63443756,0,0,0.63443756,-103.19911,76.849302)"
     style="fill:url(#linearGradient921);fill-opacity:1">
    <g
       id="#8993beff"
       style="fill:url(#linearGradient917);fill-opacity:1"
       transform="translate(25.31819)" />
    <g
       id="#ffffffff-8"
       style="fill:url(#linearGradient919);fill-opacity:1" />
  </g>
  <g
     id="g838"
     transform="matrix(0.20934762,0,0,0.20934762,563.0956,354.35329)"
     style="fill:url(#linearGradient911);fill-opacity:1;stroke:none;stroke-width:72.04040527;stroke-miterlimit:4;stroke-dasharray:none;stroke-opacity:1;paint-order:markers stroke fill">
    <path
       style="fill:url(#linearGradient911);fill-opacity:1;stroke:none;stroke-width:72.04040527;stroke-miterlimit:4;stroke-dasharray:none;stroke-opacity:1;paint-order:markers stroke fill"
       d="m -377.67578,-1064.7754 c -152.88447,264.80018 -305.77335,529.59912 -458.66016,794.39845 156.80599,0 313.61198,0 470.41797,0 -23.98372,41.54883 -47.96749,83.09763 -71.95117,124.64648 69.15506,39.92233 138.30978,79.845252 207.46484,119.767579 93.13582,-161.314599 186.271669,-322.629179 279.408206,-483.943359 -156.805986,0 -313.611976,0 -470.417966,0 84.06246,-145.612 168.1252,-291.22384 252.1875,-436.83594 -69.14993,-39.92219 -138.29929,-79.84541 -207.44922,-119.76761 -0.33333,0.5782 -0.66667,1.1563 -1,1.7344 z m -1433.47652,118.08985 c -20.6113,61.6799 -32.0399,125.85928 -44.0157,189.62696 -47.0883,-36.88074 -108.4204,-51.25309 -167.4152,-49.28133 -79.9375,-2.21715 -160.0102,-2.06023 -239.8465,2.7618 -31.5875,7.69239 -52.8123,39.49831 -53.9679,71.05362 -14.6133,89.92669 -33.9905,178.97829 -50.6609,268.54437 -18.6633,95.6025 -37.696,191.16245 -54.3185,287.13443 0.5467,21.16832 23.7778,36.97738 43.8458,31.99609 66.1855,-0.36265 132.4992,2.08132 198.5624,-3.12305 8.5885,-45.92984 17.1211,-91.88581 26.0645,-137.74023 64.117,0.73662 130.4544,0.57428 190.9679,-23.48095 7.8671,-3.14788 15.5711,-6.7 23.0907,-10.60499 -1.5874,9.13408 -3.1732,18.26846 -4.7617,27.40235 80.0343,10.57026 160.9996,4.58884 241.3711,7.6875 24.801,-101.28597 42.3598,-204.14161 62.5722,-306.38282 11.9438,-0.45606 23.9296,-1.03393 35.8047,-0.0937 -19.3492,102.25714 -40.955,204.15682 -56.0195,307.17774 54.0734,-5.47269 108.5658,-0.17583 162.8437,-1.60547 -8.9995,46.55967 -17.989,93.1212 -27.0351,139.67187 82.1798,1.0414 164.4028,2.45788 246.5644,-0.29101 11.5418,-46.10884 20.0356,-92.90766 29.1153,-139.53516 64.1756,0.89926 130.6154,0.63643 191.109,-23.66601 110.62799,-45.15449 185.54431,-162.73534 183.16387,-281.7246 0.17163,-58.68881 -21.79088,-119.48498 -67.3061,-158.09181 -47.99767,-42.03573 -113.54577,-59.62851 -176.46997,-57.03292 -79.3124,-2.08594 -158.713,-1.57599 -237.9753,1.7712 -21.691,5.22678 -39.5578,22.06981 -48.1114,42.41211 -35.9249,-29.4808 -83.2748,-39.4728 -128.5198,-43.00855 -21.501,-1.9078 -43.1032,-2.32638 -64.6794,-2.2434 9.4535,-46.19448 16.2372,-93.25605 15.0195,-140.52344 -76.181,-0.0559 -152.3619,-0.11849 -228.5429,-0.19531 l -0.3086,0.9512 z m 3271.5957,32.40235 c -81.9086,-1.01075 -157.6132,67.75033 -165.5098,149.14648 -2.6198,16.14711 3.7999,33.54334 -4.3027,48.62305 -19.3758,6.84005 -40.4062,0.493 -60.295,6.03125 -65.8858,11.34543 -122.4942,66.04699 -133.8922,132.2605 -4.073,20.63267 -4.2607,41.74366 -6.0765,62.63208 -7.6292,4.8104 -17.0975,1.29351 -25.5117,3.24804 -15.4562,1.08432 -30.8778,2.9539 -46.0528,6.12305 16.1205,-66.38076 -11.6548,-142.62724 -70.13082,-179.32813 -36.17664,-23.21759 -80.28257,-29.14404 -122.4336,-29.61718 -4.99391,-5.93409 -1.29985,-14.2166 -2.96456,-21.25972 -2.00798,-40.04552 -9.81274,-82.43037 -36.38895,-113.97075 -42.96844,-53.96417 -121.22446,-78.63713 -186.51359,-54.2582 -64.77155,23.29129 -113.24509,89.27579 -111.22275,158.79138 -0.0676,9.90715 2.2531,21.28482 -4.29491,29.71291 -15.1799,5.94489 -32.03707,0.20397 -47.76172,4.00586 -56.87077,6.81502 -111.55302,42.67125 -133.90821,96.43946 -14.92657,34.03046 -18.65068,72.88564 -10.29882,109.10742 -61.46667,-15.79314 -131.46027,7.53419 -169.71094,58.54882 -38.270088,47.70075 -49.198634,117.7315 -21.47768,173.13686 28.94206,61.27305 97.39996,102.95206 165.44643,96.05064 69.11466,-5.07691 133.48506,-58.23722 147.46224,-126.82855 5.9606,-25.96572 5.79406,-53.2919 -0.30404,-79.21637 62.27222,15.76743 134.07925,-7.07605 172.14683,-59.69943 27.86383,-36.69006 38.42188,-84.09323 36.17544,-129.52518 2.72217,-7.66339 12.71184,-4.60394 18.77929,-6.11914 14.64798,-1.19572 29.79853,-2.32682 43.8086,2.33008 6.65584,7.30053 3.80106,17.68134 5.00471,26.67952 0.15979,33.762 7.82656,68.17696 26.89589,96.46487 25.62561,39.41836 68.93498,66.07261 115.32261,72.77329 21.33148,3.33176 43.31574,2.71302 64.36077,-2.17549 -15.85255,62.81857 8.63012,134.89166 61.85272,172.51667 53.05976,39.97278 130.80346,44.34004 187.10696,8.47939 45.7827,-27.69909 76.3981,-78.73408 78.8976,-132.23976 1.2531,-13.88774 1.1795,-27.72656 4.09,-41.3774 10.9015,-3.98456 22.7353,-0.39371 33.9379,-2.87876 39.5911,-2.79556 80.6372,-14.84518 109.3057,-43.62117 40.9942,-38.17705 59.9188,-96.36618 55.4263,-151.53717 3.4684,-6.67224 12.5454,-3.29434 18.543,-4.7793 35.6854,-2.66154 73.6701,-5.70487 104.0664,-26.5918 65.886,-41.04507 95.8501,-131.52726 65.8203,-203.42383 -24.3951,-61.89142 -88.9141,-105.2446 -155.3984,-104.65429 z m -2626.0625,322.04882 c 13.2503,0.86132 27.1265,-2.12348 39.4082,4.2793 1.9628,20.33918 -5.7924,39.75712 -11.9688,58.73047 -9.0368,17.70155 -29.1589,27.22129 -48.375,27.69922 -6.6951,0.78147 -13.4538,1.07872 -20.1328,1.19922 5.9862,-30.6031 11.9211,-61.21621 17.9121,-91.81836 7.7178,-0.003 15.4436,-0.27457 23.1563,-0.0898 z m -888.4258,0.10938 c 7.658,0.22501 16.1328,0.48599 22.8789,4.15234 2.622,15.01381 -3.8278,29.60037 -6.6348,44.09375 -4.1994,16.20988 -14.5076,32.15248 -31.1657,37.64543 -13.4927,5.18893 -28.129,5.22237 -42.4593,6.29598 6.2755,-30.64532 11.9748,-61.40546 18.1153,-92.07812 13.0895,-0.0749 26.182,0.43302 39.2656,-0.10938 z"
       id="path836"
       inkscape:connector-curvature="0" />
  </g>
  <g
     style="fill:#ffffff;fill-opacity:1;stroke:none;stroke-width:72.04040527;stroke-miterlimit:4;stroke-dasharray:none;stroke-opacity:1;paint-order:markers stroke fill"
     transform="matrix(0.20934762,0,0,0.20934762,562.95979,158.35444)"
     id="g860">
    <path
       inkscape:connector-curvature="0"
       id="path858"
       transform="matrix(3.8380001,0,0,3.8380001,-2852.5976,-838.16004)"
       d="m 650.68945,207.82031 -7.04687,12.20508 -89.33594,154.73828 H 676.875 l -17.9668,31.11719 -7.04687,12.20508 24.41015,14.09375 7.04688,-12.20508 42.375,-73.39649 H 603.125 l 64.92773,-112.45898 7.04688,-12.20508 z M 283.2207,232.43359 c -1.35024,3.97177 -1.73069,8.16387 -2.63086,12.23829 -4.65873,24.0359 -9.37285,48.06361 -14,72.10742 -3.43483,17.92428 -7.15378,35.80959 -10.33593,53.78125 9.76754,0.43429 19.56041,0.0788 29.34375,0.19726 1.78453,-6.30113 2.50226,-12.85428 3.94726,-19.23437 3.96387,-20.04835 7.68306,-40.15308 11.78906,-60.17774 9.21482,-0.1895 18.45316,-0.29935 27.66797,0.11914 4.70611,0.36323 10.70007,1.1139 12.83203,6.03321 1.96615,5.99318 -0.11217,12.29409 -1.13867,18.27148 -3.38745,18.3033 -7.35791,36.51066 -10.44531,54.86133 8.78053,0.30005 17.569,-0.008 26.35742,0.1582 1.16863,-0.18161 2.67559,0.33214 3.61524,-0.59961 0.8212,-2.56625 1.12907,-5.25925 1.66601,-7.88867 2.89789,-15.22379 5.92999,-30.42269 8.85156,-45.64648 1.31077,-7.31974 3.39651,-14.60021 3.02539,-22.10157 0.0395,-7.22498 -3.17397,-14.76684 -9.42773,-18.70703 -6.27745,-3.91649 -13.70802,-5.45603 -20.98828,-6.10351 -12.59437,-1.08967 -25.24514,-0.45723 -37.87109,-0.62305 1.80032,-8.4331 3.36549,-16.90641 5,-25.37109 0.68696,-3.75857 1.72014,-7.46138 1.95703,-11.29102 -9.74386,-0.0237 -19.47888,0.016 -29.21485,-0.0234 z m 839.9961,8.90625 c -14.4607,0 -26.2109,11.72423 -26.2109,26.21094 0,19.64565 -6.5412,26.21094 -26.2129,26.21094 -14.4607,0 -26.211,11.72618 -26.211,26.21289 0,19.64565 -6.5392,26.21094 -26.2109,26.21094 -14.4607,0 -26.2129,11.72422 -26.2129,26.21093 0,14.46066 11.7262,26.2129 26.2129,26.2129 14.4607,0 26.2109,-11.72618 26.2109,-26.2129 0,-19.64564 6.5393,-26.21093 26.211,-26.21093 14.4606,0 26.2129,-11.72423 26.2129,-26.21094 0,-19.64565 6.5392,-26.21289 26.2109,-26.21289 14.4607,0 26.2109,-11.72423 26.2109,-26.21094 0,-14.46066 -11.7502,-26.21094 -26.2109,-26.21094 z m -209.82227,0.0254 c -14.46066,0 -26.21289,11.72423 -26.21289,26.21094 0,19.64565 -6.53923,26.21289 -26.21094,26.21289 -14.46065,0 -26.21093,11.72423 -26.21093,26.21094 0,14.48671 11.77567,26.21094 26.23632,26.21094 14.46066,0 26.21289,-11.72423 26.21289,-26.21094 0,-19.64565 6.56529,-26.21094 26.21094,-26.21094 19.64565,0 26.21094,6.53924 26.21094,26.21094 0,14.48671 11.77762,26.21094 26.23828,26.21094 14.46066,0 26.21094,-11.72423 26.21094,-26.21094 0,-14.46066 -11.72485,-26.21094 -26.26367,-26.21094 -19.64565,0 -26.21094,-6.54118 -26.21094,-26.21289 0,-14.46065 -11.75028,-26.21094 -26.21094,-26.21094 z M 161.54102,269.0879 c -1.47659,0.0158 -2.94555,0.17386 -4.39844,0.35547 -8.60681,46.0504 -18.02667,91.94952 -26.57031,138.00781 9.97284,0.0869 19.95301,0.25377 29.91796,-0.10156 2.25041,-12.19167 4.57887,-24.37524 7.08985,-36.51953 11.95478,-0.32374 23.92616,0.2909 35.87304,-0.43555 10.62034,-0.68696 21.42263,-3.09487 30.38477,-9.07226 12.28642,-8.21991 21.85666,-20.73625 25.61523,-35.12305 2.82683,-10.95197 3.97827,-22.92113 -0.23828,-33.6836 -3.30849,-8.85949 -10.81617,-15.68966 -19.50195,-19.17187 -8.47258,-3.4901 -17.76724,-4.12188 -26.83203,-4.23242 -17.11098,-0.0158 -34.22887,0.0397 -51.33984,-0.0234 z m 251.54882,0 c -6.69791,-0.0247 -13.39398,-0.008 -20.08203,0.2207 -9.01741,46.03461 -17.97831,92.07648 -26.8457,138.13477 9.94916,0.13423 19.8985,0.16599 29.84766,-0.0156 2.63731,-12.19166 4.56226,-24.54108 7.34961,-36.70117 3.88491,-0.008 7.77125,0.0155 11.66406,0.0234 16.13185,-0.11055 33.10821,1.03456 48.15039,-5.91406 15.78442,-7.65928 27.97673,-22.53601 32.20117,-39.59961 2.81103,-11.11779 3.70237,-23.36474 -1.01953,-34.10352 -4.24024,-9.64121 -13.3293,-16.55063 -23.35742,-19.33008 -12.27853,-3.56906 -25.19639,-2.50979 -37.81446,-2.6914 -6.69594,0.0671 -13.39583,10e-4 -20.09375,-0.0234 z m 12.03711,21.76758 c 2.15763,0.01 4.31892,0.0569 6.47852,0.0332 7.54083,0.0553 15.25439,-0.52113 22.58203,1.65821 4.27182,1.14494 8.48952,3.6395 10.40039,7.80078 2.50308,5.59837 1.89352,11.97869 0.88281,17.86132 -1.62661,9.27009 -5.23369,19.0302 -13.22461,24.66016 -7.43818,4.943 -16.64567,6.12782 -25.38671,6.23047 -6.40379,-0.0474 -12.81497,0.0617 -19.21876,-0.0488 0.39481,-4.59556 1.63405,-9.05549 2.43946,-13.58789 2.79524,-14.81319 5.79469,-29.59493 8.58203,-44.41601 2.1517,-0.17372 4.30722,-0.20128 6.46484,-0.19141 z m -230.67578,0.0176 c 3.78917,0.008 7.57708,0.0275 11.36328,0.0156 6.98021,0.24478 14.66368,0.88399 20.23047,5.56641 4.85614,4.49291 4.91855,11.78868 4.31055,17.9082 -1.26339,9.95706 -4.27106,20.61639 -12.23828,27.32813 -7.17761,5.81947 -16.81147,7.1084 -25.75781,7.38476 -6.84597,-0.008 -13.69318,0.12514 -20.53126,-0.0723 3.56907,-19.39297 7.4618,-38.73059 11.25196,-58.07618 3.79015,-0.0592 7.58192,-0.0626 11.37109,-0.0547 z m 614.07031,55.36523 a 26.211568,26.211568 0 0 0 -26.21093,26.21094 26.211568,26.211568 0 0 0 26.21093,26.21094 26.211568,26.211568 0 0 0 26.21094,-26.21094 26.211568,26.211568 0 0 0 -26.21094,-26.21094 z"
       style="fill:#ffffff;fill-opacity:1;stroke:none;stroke-width:18.770298;stroke-miterlimit:4;stroke-dasharray:none;stroke-opacity:1;paint-order:markers stroke fill" />
  </g>
</svg>
