<?xml version="1.0" encoding="UTF-8" standalone="no"?>
<svg
   xmlns:dc="http://purl.org/dc/elements/1.1/"
   xmlns:cc="http://creativecommons.org/ns#"
   xmlns:rdf="http://www.w3.org/1999/02/22-rdf-syntax-ns#"
   xmlns:svg="http://www.w3.org/2000/svg"
   xmlns="http://www.w3.org/2000/svg"
   xmlns:xlink="http://www.w3.org/1999/xlink"
   xmlns:sodipodi="http://sodipodi.sourceforge.net/DTD/sodipodi-0.dtd"
   xmlns:inkscape="http://www.inkscape.org/namespaces/inkscape"
   width="1280"
   height="640"
   viewBox="0 0 960.00002 480.00002"
   version="1.1"
   id="svg219"
   sodipodi:docname="php4nano.svg"
   inkscape:version="0.92.4 (5da689c313, 2019-01-14)"
   inkscape:export-filename="php4nano.png"
   inkscape:export-xdpi="96"
   inkscape:export-ydpi="96">
  <metadata
     id="metadata225">
    <rdf:RDF>
      <cc:Work
         rdf:about="">
        <dc:format>image/svg+xml</dc:format>
        <dc:type
           rdf:resource="http://purl.org/dc/dcmitype/StillImage" />
        <dc:title />
      </cc:Work>
    </rdf:RDF>
  </metadata>
  <defs
     id="defs223">
    <linearGradient
       inkscape:collect="always"
       id="linearGradient858">
      <stop
         style="stop-color:#777bb3;stop-opacity:1"
         offset="0"
         id="stop854" />
      <stop
         style="stop-color:#4a90e2;stop-opacity:1"
         offset="1"
         id="stop856" />
    </linearGradient>
    <linearGradient
       inkscape:collect="always"
       xlink:href="#linearGradient858"
       id="linearGradient860"
       x1="239.96988"
       y1="240"
       x2="720.03015"
       y2="240"
       gradientUnits="userSpaceOnUse" />
  </defs>
  <sodipodi:namedview
     pagecolor="#ffffff"
     bordercolor="#666666"
     borderopacity="1"
     objecttolerance="10"
     gridtolerance="10"
     guidetolerance="10"
     inkscape:pageopacity="0"
     inkscape:pageshadow="2"
     inkscape:window-width="1920"
     inkscape:window-height="1007"
     id="namedview221"
     showgrid="false"
     units="px"
     inkscape:showpageshadow="false"
     borderlayer="true"
     inkscape:zoom="0.6188277"
     inkscape:cx="362.39042"
     inkscape:cy="181.26953"
     inkscape:window-x="-9"
     inkscape:window-y="-9"
     inkscape:window-maximized="1"
     inkscape:current-layer="svg219"
     inkscape:snap-page="true"
     inkscape:snap-intersection-paths="true"
     inkscape:snap-smooth-nodes="true" />
  <g
     id="#000101ff"
     transform="translate(0,-328.99995)" />
  <g
     id="#ffffffff"
     transform="translate(0,-328.99995)" />
  <style
     id="style3930"
     type="text/css">
	.st0{fill:#4A90E2;}
	.st1{fill:#000034;}
	.st2{fill:#FFFFFF;}
</style>
  <style
     id="style15"
     type="text/css">
	.st0{fill:#4A90E2;}
	.st1{fill:#000034;}
	.st2{fill:#FFFFFF;}
</style>
  <rect
     style="fill:url(#linearGradient860);fill-opacity:1;stroke:none;stroke-width:11.25;stroke-linecap:square;stroke-miterlimit:4;stroke-dasharray:none;stroke-opacity:1;paint-order:markers stroke fill"
     id="rect827"
     width="960"
     height="480"
     x="0"
     y="0" />
  <g
     id="g3938"
     transform="matrix(0.19541428,0,0,0.19541428,557.43831,163.78844)"
     style="fill:#ffffff;fill-opacity:1;stroke:none;stroke-width:72.04040527;stroke-miterlimit:4;stroke-dasharray:none;stroke-opacity:1;paint-order:markers stroke fill">
    <path
       id="path3932"
       d="m 955.00882,390 c 0,55.6 -45.1,100.6 -100.6,100.6 -55.5,0 -100.7,-45 -100.7,-100.6 0,-75.5 -25.2,-100.6 -100.6,-100.6 -75.4,0 -100.6,25.2 -100.6,100.6 0,55.6 -45.1,100.6 -100.6,100.6 -55.5,0 -100.7,-45 -100.7,-100.6 0,-55.6 45.1,-100.6 100.6,-100.6 75.5,0 100.6,-25.2 100.6,-100.6 0,-55.6 45.1,-100.599998 100.6,-100.599998 55.5,0 100.6,45.099998 100.6,100.599998 0,75.5 25.2,100.6 100.6,100.6 55.8,0 100.8,45.1 100.8,100.6 z"
       class="st0"
       inkscape:connector-curvature="0"
       style="fill:#ffffff;fill-opacity:1;stroke:none;stroke-width:72.04040527;stroke-miterlimit:4;stroke-dasharray:none;stroke-opacity:1;paint-order:markers stroke fill" />
    <circle
       id="circle3934"
       r="100.6"
       cy="591.29999"
       cx="250.50883"
       class="st0"
       style="fill:#ffffff;fill-opacity:1;stroke:none;stroke-width:72.04040527;stroke-miterlimit:4;stroke-dasharray:none;stroke-opacity:1;paint-order:markers stroke fill" />
    <path
       id="path3936"
       d="m 1558.9089,188.7 c 0,55.6 -45.1,100.6 -100.6,100.6 -75.5,0 -100.6,25.2 -100.6,100.6 0,55.6 -45.1,100.6 -100.6,100.6 -75.5,0 -100.6,25.2 -100.6,100.6 0,55.6 -45.1,100.6 -100.6,100.6 -55.6001,0 -100.60008,-45.1 -100.60008,-100.6 0,-55.6 45.09998,-100.6 100.60008,-100.6 75.5,0 100.6,-25.2 100.6,-100.6 0,-55.6 45.1,-100.6 100.6,-100.6 75.5,0 100.6,-25.2 100.6,-100.6 0,-55.6 45.1,-100.599998 100.6,-100.599998 55.5,0 100.6,45.099998 100.6,100.599998 z"
       class="st0"
       inkscape:connector-curvature="0"
       style="fill:#ffffff;fill-opacity:1;stroke:none;stroke-width:72.04040527;stroke-miterlimit:4;stroke-dasharray:none;stroke-opacity:1;paint-order:markers stroke fill" />
  </g>
  <g
     id="g845"
     transform="matrix(0.59221192,0,0,0.59221192,-64.383707,87.707965)"
     style="fill:#ffffff;fill-opacity:1">
    <g
       id="#8993beff"
       style="fill:#ffffff;fill-opacity:1"
       transform="translate(25.31819)">
      <path
         id="path824"
         d="m 442.08,146.26 c 12.33,0.05 24.66,0 37,0.03 -0.3,4.85 -1.61,9.54 -2.48,14.3 -2.07,10.72 -4.05,21.45 -6.33,32.13 15.99,0.21 32.01,-0.59 47.96,0.79 9.22,0.82 18.63,2.77 26.58,7.73 7.92,4.99 11.99,14.54 11.94,23.69 0.47,9.5 -2.17,18.72 -3.83,27.99 -3.7,19.28 -7.54,38.53 -11.21,57.81 -0.68,3.33 -1.07,6.74 -2.11,9.99 -1.19,1.18 -3.1,0.53 -4.58,0.76 -11.13,-0.21 -22.26,0.18 -33.38,-0.2 3.91,-23.24 8.94,-46.3 13.23,-69.48 1.3,-7.57 3.93,-15.55 1.44,-23.14 -2.7,-6.23 -10.29,-7.18 -16.25,-7.64 -11.67,-0.53 -23.37,-0.39 -35.04,-0.15 -5.2,25.36 -9.91,50.82 -14.93,76.21 -1.83,8.08 -2.74,16.38 -5,24.36 -12.39,-0.15 -24.79,0.3 -37.16,-0.25 4.03,-22.76 8.74,-45.41 13.09,-68.11 5.86,-30.45 11.83,-60.88 17.73,-91.32 1.14,-5.16 1.62,-10.47 3.33,-15.5 z"
         inkscape:connector-curvature="0"
         style="opacity:1;fill:#ffffff;fill-opacity:1" />
      <path
         id="path826"
         d="m 282.41,193.13 c 1.84,-0.23 3.7,-0.43 5.57,-0.45 21.67,0.08 43.35,0.01 65.02,0.03 11.48,0.14 23.25,0.94 33.98,5.36 11,4.41 20.51,13.06 24.7,24.28 5.34,13.63 3.88,28.79 0.3,42.66 -4.76,18.22 -16.88,34.07 -32.44,44.48 -11.35,7.57 -25.03,10.62 -38.48,11.49 -15.13,0.92 -30.29,0.14 -45.43,0.55 -3.18,15.38 -6.13,30.81 -8.98,46.25 -12.62,0.45 -25.26,0.24 -37.89,0.13 10.82,-58.33 22.75,-116.46 33.65,-174.78 m 32.85,27.21 c -4.8,24.5 -9.73,48.99 -14.25,73.55 8.66,0.25 17.33,0.08 26,0.09 11.33,-0.35 23.53,-1.98 32.62,-9.35 10.09,-8.5 13.9,-22 15.5,-34.61 0.77,-7.75 0.69,-16.99 -5.46,-22.68 -7.05,-5.93 -16.78,-6.74 -25.62,-7.05 -9.59,0.03 -19.19,-0.1 -28.79,0.05 z"
         inkscape:connector-curvature="0"
         style="opacity:1;fill:#ffffff;fill-opacity:1" />
      <path
         id="path828"
         d="m 581.12,192.96 c 16.94,-0.58 33.92,-0.08 50.88,-0.25 15.98,0.23 32.34,-1.11 47.89,3.41 12.7,3.52 24.21,12.27 29.58,24.48 5.98,13.6 4.85,29.11 1.29,43.19 -5.35,21.61 -20.79,40.45 -40.78,50.15 -19.05,8.8 -40.55,7.35 -60.98,7.49 -4.93,-0.01 -9.85,-0.04 -14.77,-0.03 -3.53,15.4 -5.97,31.04 -9.31,46.48 -12.6,0.23 -25.2,0.19 -37.8,0.02 11.23,-58.33 22.58,-116.64 34,-174.94 m 32.49,27.53 c -3.53,18.77 -7.33,37.49 -10.87,56.25 -1.02,5.74 -2.59,11.39 -3.09,17.21 8.11,0.14 16.23,0 24.34,0.06 11.07,-0.13 22.73,-1.63 32.15,-7.89 10.12,-7.13 14.69,-19.49 16.75,-31.23 1.28,-7.45 2.05,-15.53 -1.12,-22.62 -2.42,-5.27 -7.76,-8.43 -13.17,-9.88 -9.28,-2.76 -19.05,-2.03 -28.6,-2.1 -5.47,0.06 -10.94,-0.24 -16.39,0.2 z"
         inkscape:connector-curvature="0"
         style="opacity:1;fill:#ffffff;fill-opacity:1" />
    </g>
    <g
       id="#ffffffff-8"
       style="fill:#ffffff;fill-opacity:1" />
  </g>
  <g
     style="fill:#ffffff;fill-opacity:1"
     transform="matrix(0.59836881,0,0,0.59836881,-490.70408,-214.3391)"
     id="g971">
    <g
       style="fill:#ffffff;fill-opacity:1"
       id="g967" />
    <g
       style="fill:#ffffff;fill-opacity:1"
       id="g969" />
  </g>
  <path
     style="opacity:0.5;fill:none;stroke:#ffffff;stroke-width:22.5;stroke-linecap:square;stroke-linejoin:miter;stroke-miterlimit:4;stroke-dasharray:none;stroke-dashoffset:0;stroke-opacity:1"
     d="m 984.17915,-372.07449 -33.93513,247.30195 67.87028,-14.60391 -33.93515,247.30196"
     id="path1680"
     inkscape:connector-curvature="0" />
  <path
     style="fill:none;stroke:#fcfcfc;stroke-width:21.13876724;stroke-linecap:square;stroke-linejoin:miter;stroke-miterlimit:4;stroke-dasharray:none;stroke-opacity:1"
     d="m 503.33463,309.69581 22.62832,-39.1934 H 434.03709 L 491.88655,170.3042"
     id="path837"
     inkscape:connector-curvature="0" />
</svg>
