<?xml version="1.0" encoding="UTF-8" standalone="no"?>
<svg
   xmlns:dc="http://purl.org/dc/elements/1.1/"
   xmlns:cc="http://creativecommons.org/ns#"
   xmlns:rdf="http://www.w3.org/1999/02/22-rdf-syntax-ns#"
   xmlns:svg="http://www.w3.org/2000/svg"
   xmlns="http://www.w3.org/2000/svg"
   xmlns:xlink="http://www.w3.org/1999/xlink"
   xmlns:sodipodi="http://sodipodi.sourceforge.net/DTD/sodipodi-0.dtd"
   xmlns:inkscape="http://www.inkscape.org/namespaces/inkscape"
   width="1280"
   height="640"
   viewBox="0 0 960.00002 480.00002"
   version="1.1"
   id="svg219"
   sodipodi:docname="social-preview.svg"
   inkscape:version="0.92.4 (5da689c313, 2019-01-14)"
   inkscape:export-filename="social-preview.png"
   inkscape:export-xdpi="96"
   inkscape:export-ydpi="96">
  <metadata
     id="metadata225">
    <rdf:RDF>
      <cc:Work
         rdf:about="">
        <dc:format>image/svg+xml</dc:format>
        <dc:type
           rdf:resource="http://purl.org/dc/dcmitype/StillImage" />
        <dc:title />
      </cc:Work>
    </rdf:RDF>
  </metadata>
  <defs
     id="defs223">
    <linearGradient
       inkscape:collect="always"
       id="linearGradient909">
      <stop
         style="stop-color:#767bb3;stop-opacity:1"
         offset="0"
         id="stop905" />
      <stop
         style="stop-color:#4a90e2;stop-opacity:1"
         offset="1"
         id="stop907" />
    </linearGradient>
    <linearGradient
       inkscape:collect="always"
       id="linearGradient867">
      <stop
         style="stop-color:#777bb3;stop-opacity:1"
         offset="0"
         id="stop863" />
      <stop
         style="stop-color:#4a90e2;stop-opacity:1"
         offset="1"
         id="stop865" />
    </linearGradient>
    <linearGradient
       inkscape:collect="always"
       xlink:href="#linearGradient867"
       id="linearGradient917"
       gradientUnits="userSpaceOnUse"
       x1="254.9274"
       y1="240"
       x2="568.0816"
       y2="240" />
    <linearGradient
       inkscape:collect="always"
       xlink:href="#linearGradient867"
       id="linearGradient919"
       gradientUnits="userSpaceOnUse"
       x1="254.9274"
       y1="240"
       x2="568.0816"
       y2="240" />
    <linearGradient
       inkscape:collect="always"
       xlink:href="#linearGradient867"
       id="linearGradient921"
       gradientUnits="userSpaceOnUse"
       x1="254.9274"
       y1="240"
       x2="568.0816"
       y2="240" />
    <linearGradient
       inkscape:collect="always"
       xlink:href="#linearGradient909"
       id="linearGradient911"
       x1="-1132.5623"
       y1="-546.23633"
       x2="350.56174"
       y2="-546.23633"
       gradientUnits="userSpaceOnUse" />
    <linearGradient
       inkscape:collect="always"
       xlink:href="#linearGradient909"
       id="linearGradient845"
       gradientUnits="userSpaceOnUse"
       x1="-1132.5623"
       y1="-546.23633"
       x2="350.56174"
       y2="-546.23633"
       gradientTransform="matrix(0.27913015,0,0,0.27913015,750.79411,472.47104)" />
  </defs>
  <sodipodi:namedview
     pagecolor="#ffffff"
     bordercolor="#666666"
     borderopacity="1"
     objecttolerance="10"
     gridtolerance="10"
     guidetolerance="10"
     inkscape:pageopacity="0"
     inkscape:pageshadow="2"
     inkscape:window-width="1920"
     inkscape:window-height="1007"
     id="namedview221"
     showgrid="false"
     units="px"
     inkscape:showpageshadow="false"
     borderlayer="true"
     inkscape:zoom="0.43757726"
     inkscape:cx="-84.849316"
     inkscape:cy="94.474033"
     inkscape:window-x="-9"
     inkscape:window-y="-9"
     inkscape:window-maximized="1"
     inkscape:current-layer="svg219"
     inkscape:snap-page="true"
     inkscape:snap-intersection-paths="true"
     inkscape:snap-smooth-nodes="true" />
  <g
     id="#000101ff"
     transform="translate(0,-328.99995)" />
  <g
     id="#ffffffff"
     transform="translate(0,-328.99995)" />
  <style
     id="style3930"
     type="text/css">
	.st0{fill:#4A90E2;}
	.st1{fill:#000034;}
	.st2{fill:#FFFFFF;}
</style>
  <style
     id="style15"
     type="text/css">
	.st0{fill:#4A90E2;}
	.st1{fill:#000034;}
	.st2{fill:#FFFFFF;}
</style>
  <g
     style="fill:#ffffff;fill-opacity:1"
     transform="matrix(0.59836881,0,0,0.59836881,-490.70408,-214.3391)"
     id="g971">
    <g
       style="fill:#ffffff;fill-opacity:1"
       id="g967" />
    <g
       style="fill:#ffffff;fill-opacity:1"
       id="g969" />
  </g>
  <path
     style="opacity:0.5;fill:none;stroke:#ffffff;stroke-width:22.5;stroke-linecap:square;stroke-linejoin:miter;stroke-miterlimit:4;stroke-dasharray:none;stroke-dashoffset:0;stroke-opacity:1"
     d="m 984.17915,-372.07449 -33.93513,247.30195 67.87028,-14.60391 -33.93515,247.30196"
     id="path1680"
     inkscape:connector-curvature="0" />
  <g
     id="g845"
     transform="matrix(0.63443756,0,0,0.63443756,-103.19911,76.849302)"
     style="fill:url(#linearGradient921);fill-opacity:1">
    <g
       id="#8993beff"
       style="fill:url(#linearGradient917);fill-opacity:1"
       transform="translate(25.31819)" />
    <g
       id="#ffffffff-8"
       style="fill:url(#linearGradient919);fill-opacity:1" />
  </g>
  <g
     id="g838"
     transform="matrix(0.20934762,0,0,0.20934762,563.09594,354.35329)"
     style="fill:url(#linearGradient911);fill-opacity:1;stroke:none;stroke-width:72.04040527;stroke-miterlimit:4;stroke-dasharray:none;stroke-opacity:1;paint-order:markers stroke fill">
    <path
       style="fill:url(#linearGradient845);fill-opacity:1;stroke:none;stroke-width:20.1086483;stroke-miterlimit:4;stroke-dasharray:none;stroke-opacity:1;paint-order:markers stroke fill"
       d="m 645.65234,174.77539 c -0.093,0.16139 -0.18625,0.32301 -0.27929,0.48438 C 602.69838,249.17348 560.02297,323.08652 517.34766,397 h 131.30859 c -6.69458,11.59753 -13.38942,23.19543 -20.08398,34.79297 19.30326,11.14352 38.60494,22.28811 57.9082,33.43164 25.99701,-45.02777 51.99497,-90.05633 77.99219,-135.08399 h -131.3086 c 23.46437,-40.64469 46.93021,-81.28886 70.39453,-121.93359 -19.30183,-11.14349 -38.60442,-22.28815 -57.90625,-33.43164 z m 5.79883,25.04688 26.15039,15.09765 -7.54883,13.07617 -69.55664,120.47657 h 131.30664 l -45.39648,78.63086 -7.54883,13.07421 -26.15039,-15.09765 7.54883,-13.07617 19.24805,-33.33594 H 548.19727 l 95.70507,-165.77149 z m -406.07812,8.01367 -0.0859,0.26562 -0.041,0.1211 c -5.75323,17.21672 -8.94235,35.1302 -12.28515,52.92968 -13.14377,-10.29452 -30.26324,-14.30623 -46.73047,-13.75586 -22.31297,-0.61887 -44.6645,-0.57449 -66.94922,0.77149 -8.81702,2.14718 -14.74189,11.02594 -15.06445,19.83398 -4.07902,25.10125 -9.487417,49.95839 -14.140628,74.95899 -5.20949,26.68554 -10.522269,53.35781 -15.16211,80.14648 0.152601,5.90872 6.638651,10.32207 12.240235,8.93164 18.474373,-0.10122 36.983593,0.58161 55.423823,-0.87109 2.39731,-12.8204 4.77902,-25.64792 7.2754,-38.44727 17.89698,0.20562 36.41354,0.15986 53.30468,-6.55468 2.19595,-0.87867 4.34637,-1.87094 6.44532,-2.96094 -0.4431,2.5496 -0.88473,5.09889 -1.32813,7.64844 22.33999,2.95047 44.93894,1.28155 67.37305,2.14648 6.9227,-28.27197 11.8249,-56.98093 17.46679,-85.51953 3.33388,-0.1273 6.67945,-0.28979 9.99415,-0.0274 -5.40095,28.54306 -11.43177,56.98595 -15.63672,85.74219 15.09351,-1.52759 30.30252,-0.0482 45.45312,-0.44726 -2.51203,12.9962 -5.01988,25.99263 -7.54492,38.98633 22.93886,0.29068 45.88849,0.68526 68.82226,-0.082 3.22167,-12.87036 5.59254,-25.93212 8.12696,-38.94726 17.91334,0.25101 36.46011,0.17807 53.3457,-6.60547 30.87961,-12.60398 51.78945,-45.42518 51.125,-78.63867 0.0479,-16.38182 -6.08244,-33.35258 -18.78711,-44.12891 -13.3976,-11.73344 -31.69377,-16.64247 -49.25781,-15.91797 -22.13848,-0.58225 -44.30128,-0.44016 -66.42578,0.49414 -6.05461,1.45896 -11.04212,6.15974 -13.42969,11.83789 -10.02772,-8.22898 -23.2438,-11.01892 -35.87305,-12.00586 -6.00157,-0.53252 -12.03212,-0.64816 -18.05468,-0.625 2.63875,-12.89427 4.53325,-26.03085 4.19336,-39.22461 -21.26442,-0.0156 -42.52856,-0.0332 -63.79297,-0.0547 z m 913.07425,9.43164 c -22.8632,-0.28213 -43.9931,18.91074 -46.1973,41.63086 -0.7313,4.50714 1.0605,9.36306 -1.2012,13.57226 -5.4083,1.90927 -11.2785,0.1377 -16.83,1.6836 -18.3908,3.16685 -34.1935,18.43578 -37.375,36.91797 -1.1369,5.7592 -1.1885,11.65183 -1.6954,17.48242 -2.1295,1.34273 -4.7724,0.36068 -7.1211,0.90625 -4.3142,0.30266 -8.6196,0.82438 -12.8554,1.70898 4.4997,-18.52887 -3.2518,-39.81231 -19.5742,-50.05664 -10.098,-6.48073 -22.4102,-8.13356 -34.17582,-8.26562 -1.39396,-1.65639 -0.36346,-3.9696 -0.82813,-5.93555 -0.56049,-11.17791 -2.73803,-23.00863 -10.15625,-31.8125 -11.99379,-15.06303 -33.83834,-21.94943 -52.0625,-15.14453 -18.07969,6.5013 -31.60942,24.92032 -31.04492,44.32422 -0.0189,2.76538 0.62853,5.94043 -1.19922,8.29297 -4.23717,1.65939 -8.94281,0.0579 -13.33203,1.11914 -15.87435,1.90227 -31.13695,11.90964 -37.37695,26.91797 -4.16646,9.49892 -5.20626,20.34448 -2.875,30.45507 -17.15721,-4.40834 -36.69418,2.10403 -47.3711,16.34375 -10.68233,13.31472 -13.73385,32.86282 -5.99609,48.32813 8.0786,17.10315 27.18782,28.73694 46.18164,26.81055 19.29198,-1.41712 37.26066,-16.25644 41.16211,-35.40235 1.66378,-7.24781 1.61622,-14.87503 -0.0859,-22.11133 17.38205,4.40117 37.42693,-1.97529 48.05273,-16.66406 7.77764,-10.2413 10.72471,-23.47287 10.09766,-36.1543 0.75984,-2.13908 3.54663,-1.28604 5.24023,-1.70898 4.0887,-0.33376 8.31789,-0.64949 12.22852,0.65039 1.85785,2.0378 1.06246,4.9356 1.39844,7.44727 0.0446,9.42399 2.18303,19.02977 7.50586,26.92578 7.15288,11.00285 19.24322,18.44409 32.1914,20.31445 5.95426,0.92999 12.09055,0.75711 17.96482,-0.60742 -4.4249,17.53456 2.4076,37.65202 17.2637,48.15429 14.8105,11.15761 36.5125,12.37698 52.2285,2.36719 12.7793,-7.73165 21.3238,-21.97706 22.0215,-36.91211 0.3497,-3.87648 0.3301,-7.74042 1.1425,-11.55078 3.043,-1.11221 6.3457,-0.10908 9.4727,-0.80273 11.0511,-0.78033 22.5075,-4.14354 30.5098,-12.17578 11.4427,-10.65637 16.7266,-26.89895 15.4726,-42.29883 0.9682,-1.86243 3.5017,-0.91949 5.1758,-1.33399 9.9609,-0.74291 20.5623,-1.5917 29.0469,-7.42187 18.3907,-11.45692 26.7552,-36.7147 18.373,-56.7832 -6.8094,-17.27577 -24.8192,-29.37572 -43.3769,-29.21094 z m -900.66605,8.92187 c 10.43016,0.0422 20.86022,0 31.29883,0.0254 -0.25378,4.1027 -1.36172,8.06915 -2.09766,12.09571 -1.75105,9.06822 -3.42678,18.14724 -5.35547,27.18164 13.5262,0.17764 27.07795,-0.50135 40.57032,0.66601 7.79935,0.69365 15.76128,2.34332 22.48632,6.53907 6.69967,4.22113 10.14193,12.30088 10.09961,20.04101 0.39758,8.03622 -1.83795,15.83609 -3.24218,23.67774 -3.12989,16.30927 -6.37791,32.59112 -9.48243,48.90039 -0.57522,2.8169 -0.9054,5.70194 -1.78515,8.45117 -1.00665,0.99818 -2.62109,0.44802 -3.87305,0.64258 -9.41505,-0.17805 -18.82973,0.15152 -28.23633,-0.16993 3.30754,-19.6591 7.56048,-39.16313 11.18946,-58.77148 1.09969,-6.40359 3.32704,-13.15372 1.2207,-19.57422 -2.28397,-5.27006 -8.70443,-6.07571 -13.7461,-6.46484 -9.87184,-0.44833 -19.76877,-0.32997 -29.64062,-0.12696 -4.39876,21.45245 -8.38436,42.99093 -12.63086,64.46875 -1.54803,6.835 -2.31675,13.85506 -4.22852,20.60547 -10.4809,-0.1269 -20.97156,0.25432 -31.43554,-0.21093 3.40904,-19.25307 7.39253,-38.41488 11.07226,-57.61719 4.95708,-25.75817 10.00715,-51.49835 14.99805,-77.24805 0.96435,-4.36493 1.37185,-8.85636 2.81836,-13.11133 z m 899.89065,9.54102 c 15.4917,0 28.0781,12.58835 28.0781,28.08008 0,15.51963 -12.5864,28.08007 -28.0781,28.08007 -21.0743,0 -28.0801,7.03562 -28.0801,28.08204 0,15.51963 -12.5904,28.08007 -28.082,28.08007 -21.0744,0 -28.0801,7.03368 -28.0801,28.08008 0,15.51965 -12.5883,28.08203 -28.0801,28.08203 -15.5196,0 -28.082,-12.5903 -28.082,-28.08203 0,-15.51963 12.5902,-28.08008 28.082,-28.08008 21.0743,0 28.0801,-7.03366 28.0801,-28.08007 0,-15.51964 12.5883,-28.08204 28.0801,-28.08204 21.0743,0 28.082,-7.03366 28.082,-28.08007 0,-15.51964 12.5883,-28.08008 28.0801,-28.08008 z m -224.78323,0.0273 c 15.49173,0 28.08008,12.58836 28.08008,28.08008 0,21.07433 7.03171,28.08203 28.07813,28.08203 15.57542,0 28.13672,12.58835 28.13672,28.08008 0,15.51963 -12.5884,28.08008 -28.08008,28.08008 -15.49173,0 -28.10938,-12.56045 -28.10938,-28.08008 0,-21.07432 -7.03171,-28.08008 -28.07812,-28.08008 -21.04642,0 -28.08008,7.03366 -28.08008,28.08008 0,15.51963 -12.59031,28.08008 -28.08203,28.08008 -15.49172,0 -28.10743,-12.56045 -28.10743,-28.08008 0,-15.51963 12.58837,-28.08008 28.08008,-28.08008 21.07434,0 28.08008,-7.03561 28.08008,-28.08203 0,-15.51963 12.5903,-28.08008 28.08203,-28.08008 z m -805.46289,29.69922 c 18.33101,0.0676 36.66898,0.008 55,0.0254 9.71112,0.11842 19.66941,0.79621 28.7461,4.53516 9.30508,3.7305 17.34818,11.04788 20.89257,20.53906 4.5172,11.52985 3.28425,24.35112 0.25586,36.08398 -4.02656,15.41261 -14.2809,28.82291 -27.44336,37.62891 -9.60115,6.40359 -21.17319,8.98281 -32.55078,9.71875 -12.79871,0.77825 -25.62251,0.11997 -38.42969,0.4668 -2.69001,13.01019 -5.18483,26.06209 -7.5957,39.12304 -10.67547,0.38067 -21.36686,0.20248 -32.05078,0.10938 9.15281,-49.34232 19.24435,-98.51574 28.46484,-147.84961 1.55649,-0.19456 3.12907,-0.36393 4.71094,-0.38086 z m 269.48438,0 c 7.17549,0.0261 14.35397,0.0973 21.52734,0.0254 13.51776,0.19456 27.35576,-0.94073 40.50977,2.88281 10.74314,2.97763 20.48086,10.38035 25.02343,20.70899 5.05858,11.50447 4.10326,24.62465 1.0918,36.53516 -4.52565,18.28026 -17.58622,34.21842 -34.49609,42.42382 -16.11471,7.44407 -34.30191,6.21751 -51.58399,6.33594 -4.17037,-0.008 -8.33418,-0.034 -12.49609,-0.0254 -2.98609,13.02712 -5.04769,26.25742 -7.87305,39.31836 -10.65855,0.19454 -21.31801,0.15943 -31.97656,0.0156 9.49965,-49.34231 19.0994,-98.66742 28.75976,-147.98437 7.16492,-0.24501 14.33819,-0.26279 21.51368,-0.23633 z m 12.89648,23.32031 c -2.31146,-0.0106 -4.62066,0.019 -6.92578,0.20508 -2.98608,15.87785 -6.20077,31.71459 -9.19531,47.58399 -0.86284,4.85556 -2.19032,9.63341 -2.61328,14.55664 6.86039,0.11838 13.72945,0 20.58984,0.0508 9.36429,-0.10997 19.22873,-1.37839 27.19727,-6.67383 8.56068,-6.03138 12.42537,-16.48691 14.16796,-26.41797 1.08278,-6.30207 1.73429,-13.13722 -0.94726,-19.13476 -2.04712,-4.45799 -6.56422,-7.13085 -11.14063,-8.35743 -7.85011,-2.33473 -16.11485,-1.7181 -24.19336,-1.77734 -2.31358,0.0254 -4.62798,-0.0244 -6.93945,-0.0352 z m -247.12305,0.0195 c -4.05934,-0.008 -8.12124,-0.005 -12.18164,0.0586 -4.0604,20.72496 -8.23113,41.44108 -12.05468,62.2168 7.32564,0.21151 14.66004,0.0676 21.99414,0.0762 9.58422,-0.29607 19.90631,-1.67575 27.5957,-7.91016 8.53529,-7.1903 11.7559,-18.61033 13.10937,-29.27734 0.65136,-6.55585 0.58521,-14.37229 -4.61718,-19.18555 -5.96371,-5.01628 -14.19592,-5.70066 -21.67383,-5.96289 -4.05616,0.0127 -8.11253,-0.007 -12.17188,-0.0156 z m 259.51953,18.35742 c 1.07752,-0.0126 2.156,-0.0199 3.23243,0.006 3.69856,0.24042 7.5718,-0.5919 11,1.19531 0.54787,5.67728 -1.61778,11.09654 -3.3418,16.39258 -2.52244,4.94103 -8.13816,7.59901 -13.50195,7.73242 -1.86881,0.21813 -3.75679,0.30035 -5.6211,0.33398 1.67093,-8.54224 3.32773,-17.08692 5,-25.6289 1.07714,-4.2e-4 2.15491,-0.0186 3.23242,-0.0312 z m -244.7539,0.0371 c 2.13758,0.0628 4.50172,0.13481 6.38476,1.1582 0.73188,4.19081 -1.06804,8.26305 -1.85156,12.30859 -1.17218,4.52467 -4.04944,8.97457 -8.69922,10.50782 -3.76622,1.44838 -7.85154,1.45813 -11.85156,1.75781 1.75168,-8.55403 3.34264,-17.14146 5.05664,-25.70313 3.65368,-0.0209 7.30891,0.12211 10.96094,-0.0293 z m 643.08789,40.91797 a 28.080493,28.080493 0 0 1 28.08008,28.08007 28.080493,28.080493 0 0 1 -28.08008,28.08008 28.080493,28.080493 0 0 1 -28.08008,-28.08008 28.080493,28.080493 0 0 1 28.08008,-28.08007 z"
       transform="matrix(3.5825582,0,0,3.5825582,-2689.7636,-1692.655)"
       id="path836"
       inkscape:connector-curvature="0" />
  </g>
  <g
     style="fill:#ffffff;fill-opacity:1;stroke:none;stroke-width:72.04040527;stroke-miterlimit:4;stroke-dasharray:none;stroke-opacity:1;paint-order:markers stroke fill"
     transform="matrix(0.20934762,0,0,0.20934762,562.95979,158.35444)"
     id="g860" />
</svg>
